<svg width="30" height="30" viewBox="0 0 30 30" fill="none" xmlns="http://www.w3.org/2000/svg">
<path d="M15 4.44444C9.79221 4.44444 5.55554 8.68111 5.55554 13.8889C5.55554 17.84 7.99499 21.34 11.6667 22.7222V27.7778C11.6667 28.085 11.915 28.3333 12.2222 28.3333H12.7778V29.4444C12.7778 29.7517 13.0261 30 13.3333 30H16.6667C16.9739 30 17.2222 29.7517 17.2222 29.4444V28.3333H17.7778C18.085 28.3333 18.3333 28.085 18.3333 27.7778V22.7222C22.005 21.34 24.4444 17.84 24.4444 13.8889C24.4444 8.68111 20.2078 4.44444 15 4.44444ZM16.6667 27.2222C16.3594 27.2222 16.1111 27.4706 16.1111 27.7778V28.8889H13.8889V27.7778C13.8889 27.4706 13.6405 27.2222 13.3333 27.2222H12.7778V24.4444H17.2222V27.2222H16.6667ZM17.6044 21.8011C17.3761 21.8761 17.2222 22.0894 17.2222 22.3289V23.3333H12.7778V22.3289C12.7778 22.0889 12.6239 21.8761 12.3955 21.8011C8.96943 20.6744 6.66665 17.4944 6.66665 13.8889C6.66665 9.29389 10.405 5.55555 15 5.55555C19.595 5.55555 23.3333 9.29389 23.3333 13.8889C23.3333 17.4944 21.0305 20.6744 17.6044 21.8011Z" fill="#FFFAEE"/>
<path d="M15 3.33333C15.3072 3.33333 15.5555 3.085 15.5555 2.77778V0.555556C15.5555 0.248333 15.3072 0 15 0C14.6927 0 14.4444 0.248333 14.4444 0.555556V2.77778C14.4444 3.085 14.6927 3.33333 15 3.33333Z" fill="#FFFAEE"/>
<path d="M28.3333 13.3333H26.1111C25.8039 13.3333 25.5555 13.5817 25.5555 13.8889C25.5555 14.1961 25.8039 14.4444 26.1111 14.4444H28.3333C28.6405 14.4444 28.8889 14.1961 28.8889 13.8889C28.8889 13.5817 28.6405 13.3333 28.3333 13.3333Z" fill="#FFFAEE"/>
<path d="M3.88886 13.3333H1.66664C1.35942 13.3333 1.11108 13.5817 1.11108 13.8889C1.11108 14.1961 1.35942 14.4444 1.66664 14.4444H3.88886C4.19608 14.4444 4.44442 14.1961 4.44442 13.8889C4.44442 13.5817 4.19608 13.3333 3.88886 13.3333Z" fill="#FFFAEE"/>
<path d="M24.0355 4.06778L22.4644 5.63889C22.2472 5.85611 22.2472 6.20722 22.4644 6.42444C22.5728 6.53278 22.715 6.58722 22.8572 6.58722C22.9994 6.58722 23.1417 6.53278 23.25 6.42444L24.8211 4.85333C25.0383 4.63611 25.0383 4.285 24.8211 4.06778C24.6039 3.85055 24.2522 3.85111 24.0355 4.06778Z" fill="#FFFAEE"/>
<path d="M6.74996 21.3533L5.17885 22.9244C4.96162 23.1417 4.96162 23.4928 5.17885 23.71C5.28718 23.8183 5.4294 23.8728 5.57163 23.8728C5.71385 23.8728 5.85607 23.8183 5.9644 23.71L7.53551 22.1389C7.75274 21.9217 7.75274 21.5706 7.53551 21.3533C7.31829 21.1361 6.96718 21.1361 6.74996 21.3533Z" fill="#FFFAEE"/>
<path d="M23.25 21.3533C23.0328 21.1361 22.6817 21.1361 22.4644 21.3533C22.2472 21.5706 22.2472 21.9217 22.4644 22.1389L24.0355 23.71C24.1439 23.8183 24.2861 23.8728 24.4283 23.8728C24.5705 23.8728 24.7128 23.8183 24.8211 23.71C25.0383 23.4928 25.0383 23.1417 24.8211 22.9244L23.25 21.3533Z" fill="#FFFAEE"/>
<path d="M6.74996 6.42444C6.85829 6.53278 7.00051 6.58722 7.14274 6.58722C7.28496 6.58722 7.42718 6.53278 7.53551 6.42444C7.75274 6.20722 7.75274 5.85611 7.53551 5.63889L5.9644 4.06778C5.74718 3.85056 5.39607 3.85056 5.17885 4.06778C4.96162 4.285 4.96162 4.63611 5.17885 4.85333L6.74996 6.42444Z" fill="#FFFAEE"/>
<path d="M15 7.22222C11.3239 7.22222 8.33331 10.2128 8.33331 13.8889C8.33331 14.1961 8.58165 14.4444 8.88887 14.4444C9.19609 14.4444 9.44442 14.1961 9.44442 13.8889C9.44442 10.8256 11.9366 8.33333 15 8.33333C15.3072 8.33333 15.5555 8.085 15.5555 7.77778C15.5555 7.47055 15.3072 7.22222 15 7.22222Z" fill="#FFFAEE"/>
</svg>
