<svg width="30" height="30" viewBox="0 0 30 30" fill="none" xmlns="http://www.w3.org/2000/svg">
<path d="M30 4.1555C30 4.056 29.974 3.9645 29.9345 3.88C29.921 3.7755 29.8785 3.674 29.8075 3.5905L26.73 0H3.27L0.192 3.591C0.121 3.674 0.0785 3.775 0.0655 3.88C0.026 3.9645 0 4.056 0 4.1555V9.5H1.5V30H28.5V9.5H30V4.1555ZM3.73 1H26.27L28.413 3.5H1.587L3.73 1ZM27.5 29H2.5V9.5H27.5V29ZM29 8.5H28.5H1.5H1V4.5H29V8.5Z" fill="#FFFAEE"/>
<path d="M21 11.5H9V16.5H21V11.5ZM20 15.5H10V12.5H20V15.5Z" fill="#FFFAEE"/>
<path d="M22.5 19H7.5V26H22.5V19ZM21.5 25H8.5V20H21.5V25Z" fill="#FFFAEE"/>
<path d="M11 24H13.5C13.776 24 14 23.7765 14 23.5C14 23.2235 13.776 23 13.5 23H11C10.724 23 10.5 23.2235 10.5 23.5C10.5 23.7765 10.724 24 11 24Z" fill="#FFFAEE"/>
<path d="M13.5 22H19C19.276 22 19.5 21.7765 19.5 21.5C19.5 21.2235 19.276 21 19 21H13.5C13.224 21 13 21.2235 13 21.5C13 21.7765 13.224 22 13.5 22Z" fill="#FFFAEE"/>
<path d="M11 22C11.13 22 11.26 21.945 11.355 21.855C11.445 21.76 11.5 21.63 11.5 21.5C11.5 21.3695 11.445 21.2395 11.355 21.145C11.165 20.96 10.835 20.96 10.645 21.145C10.555 21.2395 10.5 21.3695 10.5 21.5C10.5 21.635 10.555 21.76 10.645 21.855C10.74 21.945 10.865 22 11 22Z" fill="#FFFAEE"/>
<path d="M15.645 23.145C15.555 23.2395 15.5 23.3695 15.5 23.5C15.5 23.63 15.555 23.76 15.645 23.855C15.74 23.945 15.87 24 16 24C16.13 24 16.26 23.945 16.355 23.855C16.445 23.76 16.5 23.63 16.5 23.5C16.5 23.3695 16.445 23.2395 16.355 23.145C16.17 22.96 15.83 22.96 15.645 23.145Z" fill="#FFFAEE"/>
<path d="M19 23H18.5C18.224 23 18 23.2235 18 23.5C18 23.7765 18.224 24 18.5 24H19C19.276 24 19.5 23.7765 19.5 23.5C19.5 23.2235 19.276 23 19 23Z" fill="#FFFAEE"/>
</svg>
