<svg width="30" height="30" viewBox="0 0 30 30" fill="none" xmlns="http://www.w3.org/2000/svg">
<path d="M24.5779 14.7268C24.8794 14.7268 25.1238 14.4823 25.1238 14.1808C25.1238 13.8793 24.8794 13.6349 24.5779 13.6349C24.2764 13.6349 24.032 13.8793 24.032 14.1808C24.032 14.4823 24.2764 14.7268 24.5779 14.7268Z" fill="#FFFAEE"/>
<path d="M4.92477 14.7268C5.22627 14.7268 5.47069 14.4823 5.47069 14.1808C5.47069 13.8793 5.22627 13.6349 4.92477 13.6349C4.62326 13.6349 4.37885 13.8793 4.37885 14.1808C4.37885 14.4823 4.62326 14.7268 4.92477 14.7268Z" fill="#FFFAEE"/>
<path d="M6.56252 16.3645C6.86403 16.3645 7.10844 16.1201 7.10844 15.8186C7.10844 15.5171 6.86403 15.2727 6.56252 15.2727C6.26102 15.2727 6.0166 15.5171 6.0166 15.8186C6.0166 16.1201 6.26102 16.3645 6.56252 16.3645Z" fill="#FFFAEE"/>
<path d="M9.83803 16.3645C10.1395 16.3645 10.384 16.1201 10.384 15.8186C10.384 15.5171 10.1395 15.2727 9.83803 15.2727C9.53653 15.2727 9.29211 15.5171 9.29211 15.8186C9.29211 16.1201 9.53653 16.3645 9.83803 16.3645Z" fill="#FFFAEE"/>
<path d="M8.20028 18.0023C8.50178 18.0023 8.7462 17.7579 8.7462 17.4564C8.7462 17.1549 8.50178 16.9105 8.20028 16.9105C7.89878 16.9105 7.65436 17.1549 7.65436 17.4564C7.65436 17.7579 7.89878 18.0023 8.20028 18.0023Z" fill="#FFFAEE"/>
<path d="M11.4758 18.0023C11.7773 18.0023 12.0217 17.7579 12.0217 17.4564C12.0217 17.1549 11.7773 16.9105 11.4758 16.9105C11.1743 16.9105 10.9299 17.1549 10.9299 17.4564C10.9299 17.7579 11.1743 18.0023 11.4758 18.0023Z" fill="#FFFAEE"/>
<path d="M13.1135 19.6401C13.4151 19.6401 13.6595 19.3956 13.6595 19.0941C13.6595 18.7926 13.4151 18.5482 13.1135 18.5482C12.812 18.5482 12.5676 18.7926 12.5676 19.0941C12.5676 19.3956 12.812 19.6401 13.1135 19.6401Z" fill="#FFFAEE"/>
<path d="M16.3891 19.6401C16.6906 19.6401 16.935 19.3956 16.935 19.0941C16.935 18.7926 16.6906 18.5482 16.3891 18.5482C16.0876 18.5482 15.8432 18.7926 15.8432 19.0941C15.8432 19.3956 16.0876 19.6401 16.3891 19.6401Z" fill="#FFFAEE"/>
<path d="M18.0269 18.0023C18.3284 18.0023 18.5728 17.7579 18.5728 17.4564C18.5728 17.1549 18.3284 16.9105 18.0269 16.9105C17.7254 16.9105 17.481 17.1549 17.481 17.4564C17.481 17.7579 17.7254 18.0023 18.0269 18.0023Z" fill="#FFFAEE"/>
<path d="M14.7514 21.2778C15.0529 21.2778 15.2973 21.0334 15.2973 20.7319C15.2973 20.4304 15.0529 20.186 14.7514 20.186C14.4499 20.186 14.2054 20.4304 14.2054 20.7319C14.2054 21.0334 14.4499 21.2778 14.7514 21.2778Z" fill="#FFFAEE"/>
<path d="M19.6646 16.3645C19.9661 16.3645 20.2106 16.1201 20.2106 15.8186C20.2106 15.5171 19.9661 15.2727 19.6646 15.2727C19.3631 15.2727 19.1187 15.5171 19.1187 15.8186C19.1187 16.1201 19.3631 16.3645 19.6646 16.3645Z" fill="#FFFAEE"/>
<path d="M22.9401 16.3645C23.2416 16.3645 23.4861 16.1201 23.4861 15.8186C23.4861 15.5171 23.2416 15.2727 22.9401 15.2727C22.6386 15.2727 22.3942 15.5171 22.3942 15.8186C22.3942 16.1201 22.6386 16.3645 22.9401 16.3645Z" fill="#FFFAEE"/>
<path d="M21.3024 18.0023C21.6039 18.0023 21.8483 17.7579 21.8483 17.4564C21.8483 17.1549 21.6039 16.9105 21.3024 16.9105C21.0009 16.9105 20.7565 17.1549 20.7565 17.4564C20.7565 17.7579 21.0009 18.0023 21.3024 18.0023Z" fill="#FFFAEE"/>
<path d="M24.8716 17.904L30 14.9741L24.7286 11.9808L30 8.96894L15.0003 0.450932L0 8.96894L5.27141 11.9808L0 14.9741L5.27141 17.9859L0 20.9792L15.0003 29.5491L30.0005 20.9792L24.7291 17.9859L24.7679 17.9635C24.8061 17.9493 24.8378 17.9264 24.8716 17.904ZM15.0003 1.706L27.7945 8.97167L23.6253 11.3541L15.0008 16.2816L2.20607 8.97167L15.0003 1.706ZM6.07555 12.7795C6.16399 12.9613 6.34688 13.089 6.56252 13.089C6.70992 13.089 6.84203 13.0295 6.94029 12.9345L8.17517 13.6398C7.88583 13.6535 7.65436 13.8882 7.65436 14.1808C7.65436 14.4822 7.89893 14.7268 8.20028 14.7268C8.50163 14.7268 8.7462 14.4822 8.7462 14.1808C8.7462 14.0864 8.71618 14.0023 8.67414 13.9248L14.3135 17.1468C14.2502 17.2358 14.2054 17.339 14.2054 17.4564C14.2054 17.7577 14.45 18.0023 14.7513 18.0023C15.0527 18.0023 15.2973 17.7577 15.2973 17.4564C15.2973 17.4285 15.2858 17.4051 15.2814 17.3783L20.769 14.2431C20.8012 14.5139 21.0229 14.7262 21.3024 14.7262C21.6037 14.7262 21.8483 14.4816 21.8483 14.1803C21.8483 14.0029 21.7582 13.8522 21.6267 13.7528L22.8288 13.0661C22.8659 13.0743 22.9008 13.0885 22.9401 13.0885C23.1825 13.0885 23.3807 12.928 23.4522 12.7096L23.6269 12.6097L27.7945 14.9763L26.7119 15.5948C26.6262 15.4053 26.4373 15.2721 26.2162 15.2721C25.9149 15.2721 25.6703 15.5167 25.6703 15.8181C25.6703 15.936 25.7156 16.0392 25.7789 16.1281L23.6253 17.3587L20.1379 19.3513C20.1805 19.2737 20.2111 19.1886 20.2111 19.0936C20.2111 18.7922 19.9665 18.5477 19.6652 18.5477C19.3638 18.5477 19.1192 18.7922 19.1192 19.0936C19.1192 19.3867 19.3518 19.6215 19.6417 19.6346L18.4063 20.3405C18.308 20.2455 18.1753 20.1854 18.0274 20.1854C17.7261 20.1854 17.4815 20.43 17.4815 20.7314C17.4815 20.775 17.4968 20.8138 17.5066 20.8547L15.0008 22.2861L11.989 20.5654C11.918 20.3465 11.7193 20.1854 11.4764 20.1854C11.4365 20.1854 11.401 20.2002 11.3639 20.2084L10.1623 19.5221C10.2939 19.4222 10.3845 19.2721 10.3845 19.0941C10.3845 18.7928 10.1399 18.5482 9.83859 18.5482C9.55908 18.5482 9.33689 18.7617 9.30522 19.0324L3.81653 15.8972C3.82036 15.8705 3.83237 15.8465 3.83237 15.8186C3.83237 15.5173 3.58779 15.2727 3.28644 15.2727C3.15597 15.2727 3.04133 15.3246 2.94743 15.401L2.20552 14.9773L6.07555 12.7795ZM27.7939 20.9819L14.9997 28.2918L2.20607 20.9819L6.37308 18.6154L15.0003 23.5439L23.6269 18.6154L27.7939 20.9819Z" fill="#FFFAEE"/>
</svg>
