<svg width="30" height="30" viewBox="0 0 30 30" fill="none" xmlns="http://www.w3.org/2000/svg">
<path d="M24.007 21.4445L19.2305 19.0565C18.78 18.831 18.5 18.378 18.5 17.874V16.1835C18.6145 16.0435 18.735 15.884 18.8595 15.708C19.479 14.833 19.9755 13.859 20.3365 12.8085C21.042 12.485 21.5 11.7875 21.5 11V9C21.5 8.5185 21.32 8.052 21 7.6875V5.028C21.028 4.753 21.138 3.116 19.954 1.7655C18.927 0.594 17.2605 0 15 0C12.7395 0 11.073 0.594 10.046 1.765C8.862 3.1155 8.972 4.753 9 5.028V7.6875C8.68 8.052 8.5 8.5185 8.5 9V11C8.5 11.6085 8.7765 12.176 9.2485 12.5545C9.7065 14.368 10.665 15.7345 11 16.173V17.8275C11 18.3115 10.736 18.7555 10.3115 18.9875L5.851 21.4205C4.4005 22.212 3.5 23.729 3.5 25.381V27C3.5 29.373 11.0225 30 15 30C18.9775 30 26.5 29.373 26.5 27V25.4785C26.5 23.7595 25.5445 22.2135 24.007 21.4445ZM25.5 27C25.5 27.6785 21.794 29 15 29C8.206 29 4.5 27.6785 4.5 27V25.381C4.5 24.0955 5.201 22.914 6.3295 22.299L10.79 19.866C11.5365 19.4585 12 18.677 12 17.8275V15.818L11.8835 15.679C11.8715 15.6645 10.646 14.182 10.1785 12.1465L10.133 11.9485L9.9625 11.8385C9.673 11.6515 9.5 11.338 9.5 11V9C9.5 8.7195 9.619 8.458 9.835 8.2625L10 8.114V5L9.9955 4.9345C9.994 4.921 9.824 3.535 10.798 2.424C11.6265 1.479 13.0405 1 15 1C16.9525 1 18.3635 1.4755 19.193 2.414C20.1665 3.5145 20.0055 4.9225 20.0045 4.9345L20 8.114L20.165 8.263C20.381 8.458 20.5 8.7195 20.5 9V11C20.5 11.4365 20.214 11.8185 19.789 11.9495L19.54 12.026L19.46 12.2735C19.1255 13.314 18.649 14.275 18.043 15.13C17.8945 15.3405 17.75 15.527 17.6245 15.6695L17.5 15.8115V17.874C17.5 18.759 17.9915 19.5545 18.783 19.9505L23.5595 22.3385C24.7565 22.937 25.5 24.14 25.5 25.4785V27Z" fill="#FFFAEE"/>
</svg>
