<svg width="30" height="30" viewBox="0 0 30 30" fill="none" xmlns="http://www.w3.org/2000/svg">
<g clip-path="url(#clip0)">
<path d="M29.723 13.6029L15.6053 0.978369C15.5806 0.953688 15.5559 0.935176 15.5251 0.916665C15.2165 0.620489 14.7229 0.608148 14.3959 0.898154L0.278134 13.5227C-0.0674058 13.8312 -0.0920872 14.3557 0.21026 14.7012C0.376859 14.8863 0.605162 14.9789 0.833465 14.9789C1.03092 14.9789 1.22837 14.911 1.3888 14.7691L3.93098 12.4922V12.9365V19.5264V27.2147C3.93098 28.3686 4.86887 29.3126 6.0289 29.3126C6.04741 29.3126 6.05975 29.3126 6.07826 29.3126C6.09677 29.3126 6.10911 29.3126 6.12763 29.3126H10.4839C11.5699 29.3126 12.4522 28.4303 12.4522 27.3443V19.8596C12.4522 19.693 12.588 19.5573 12.7546 19.5573H17.2528C17.4194 19.5573 17.5551 19.693 17.5551 19.8596V27.3443C17.5551 28.4303 18.4375 29.3126 19.5235 29.3126H23.9784C25.1508 29.3126 26.0764 28.1588 26.0764 26.6841V19.8226V17.7247V12.5725L28.6185 14.8493C28.779 14.9912 28.9764 15.0591 29.1739 15.0591C29.4022 15.0591 29.6305 14.9666 29.7971 14.7814C30.0933 14.4359 30.0624 13.9114 29.723 13.6029ZM24.4042 17.7185V19.8165V26.6717C24.4042 27.2702 24.108 27.6343 23.9723 27.6343H19.5173C19.3507 27.6343 19.2149 27.4985 19.2149 27.3319V19.8596C19.2149 18.7737 18.3326 17.8913 17.2466 17.8913H12.7484C11.6624 17.8913 10.7801 18.7737 10.7801 19.8596V27.3443C10.7801 27.5109 10.6443 27.6466 10.4777 27.6466H6.12146C6.10294 27.6466 6.0906 27.6466 6.07209 27.6466C6.05358 27.6466 6.04124 27.6466 6.02273 27.6466C5.78826 27.6466 5.59081 27.4553 5.59081 27.2147V19.5203V12.9303V10.999L14.9574 2.63202L24.4042 11.0792V17.7185Z" fill="#FFFAEE"/>
</g>
<defs>
<clipPath id="clip0">
</clipPath>
</defs>
</svg>
